# xmcd
#
# Track frame offsets: 
#        150
#        18674
#        37056
#        62113
#        85603
#        106324
#        125581
#        146327
#
# Disc length: 2162 seconds
#
# Revision: 1
# Processed by: cddbd v1.5.2PL0 Copyright (c) Steve Scherf et al.
# Submitted via: ExactAudioCopyFreeDBPlugin 1.0
#
DISCID=69087008
DTITLE=Rick James Presents Bobby M - Blow
DYEAR=1982
DGENRE=Funk
TTITLE0=Alto Man
TTITLE1=Let's Stay Together
TTITLE2=How Do You Feel Tonight
TTITLE3=Blow
TTITLE4=Redliner
TTITLE5=A Little Song For You
TTITLE6=Charlie's Backbeat
TTITLE7=Rome Tones
EXTD=
EXTT0=
EXTT1=
EXTT2=
EXTT3=
EXTT4=
EXTT5=
EXTT6=
EXTT7=
PLAYORDER=
